<svg id="Layer_1" data-name="Layer 1" xmlns="http://www.w3.org/2000/svg" viewBox="0 0 150 30"><defs><style>.cls-1{fill:#f8d242;}.cls-2{fill:#bd2626;}.cls-3{fill:#fff;}.cls-4{fill:#231f20;stroke:#fff;stroke-miterlimit:10;stroke-width:0.03px;}</style></defs><rect class="cls-1" width="150" height="30"/><g id="red"><polygon class="cls-2" points="143.31 22.94 3.06 25.06 4.31 7.04 144.57 4.92 143.31 22.94"/></g><g id="wolford"><polygon class="cls-3" points="48.67 10.19 47.96 14.69 47.2 10.04 41.23 10.16 40.37 15.13 39.16 10.24 33.63 10.29 36.57 22.7 43.01 22.83 43.86 18.01 44.98 22.64 51.49 22.4 53.73 9.88 48.67 10.19"/><polygon class="cls-3" points="81.25 17.25 77.48 17.19 77.35 9.49 71.04 9.21 71.11 21.95 81.27 21.81 81.25 17.25"/><polygon class="cls-3" points="89.36 12.09 92.48 11.96 92.6 9.47 82.55 9.56 82.83 21.3 88.55 21.36 89.12 17.49 92.11 17.32 92.32 14.35 89.29 14.27 89.36 12.09"/><path class="cls-3" d="M101.45,8.68c-3.83-.27-6.81.93-7.18,6.25C94,18.8,95.5,21.15,101,21.53c4.36.31,6.8-1,7.16-6.15C108.44,11.52,107.29,9.08,101.45,8.68Zm-.06,10.91c-.45,0-.85-2.06-.88-4.6s.32-4.61.78-4.62.85,2.06.88,4.6S101.85,19.58,101.39,19.59Z"/><path class="cls-3" d="M122,15.4s4.42-4.63-.66-6.89C115.52,8.23,111,8.22,111,8.22s-.81,0-.81.51c0,0,0,11.17.51,12l5.9.15.45-3.13,2.86,3.76,4.81-2.58Zm-5.68-.33.32-4.61c1.15-.05,1.48.47,1.47,2.59S116.35,15.07,116.35,15.07Z"/><path class="cls-3" d="M139.72,14.37s.63-4.71-3.19-6.15h-4.47l-6,.08.32,12.21,6.31,0S139.59,20.56,139.72,14.37Zm-6.89,3.53s-1.05,1.57-.88-2.82l.11-4.42s-.17-1.22.9-.57C133,10.09,134.51,13.11,132.83,17.9Z"/></g><g id="wolf"><path class="cls-3" d="M71.57,17.4l.85.71-.37-2.26a3.81,3.81,0,0,0-.2-.69c0-.13-.11-.27-.16-.41-.17-.43-.35-.88-.54-1.32a9.49,9.49,0,0,0-.85-1.52l.3-.72-.26-.38a7.38,7.38,0,0,0-.73-.92v0a3.39,3.39,0,0,0,.26-.54,6.27,6.27,0,0,0,.35-1.6,6,6,0,0,0-.07-1.53,5,5,0,0,0-.49-1.37L69.18,4l-.78.59-.46.35c-.33.26-.64.5-1,.72s-.67.42-1,.64l-.49.29-.09.06a8.41,8.41,0,0,0-1.42-.38l-.29,0a1.51,1.51,0,0,0-.48.07l-.55.22-.42.16L62,6.61l-.37-.16a2.43,2.43,0,0,0-1-.24,2.3,2.3,0,0,0-.45,0,9.25,9.25,0,0,0-1.14.32l-.18-.09a14.25,14.25,0,0,1-2.84-2l-.87-.8-.48,1.09L54.66,5a2.88,2.88,0,0,0-.13.31,4.52,4.52,0,0,0-.37,1.82,9.59,9.59,0,0,0,.09,1.14,4.43,4.43,0,0,0,.48,1.52l0,.07a8.79,8.79,0,0,0-.76.95l-.26.38.29.7a9.12,9.12,0,0,0-.58,1c-.29.57-.54,1.16-.79,1.73l-.05.13a6.64,6.64,0,0,0-.24.66l-.09.25-.21.62.54.37.25.17a12.3,12.3,0,0,0-.32,1.82v0a1,1,0,0,0,.2.82,1,1,0,0,0,.75.35,8.31,8.31,0,0,1,1.48.34,9.17,9.17,0,0,1,1.87.84,8.29,8.29,0,0,1,1.72,1.34.75.75,0,0,1,.11.13l.09.09.75.87.14-.22c.24.37.47.78.71,1.22s.43.84.63,1.26l.29.59.07.13,0,0,.48.85.77-.59a1,1,0,0,0,.27-.3l.06-.12h0a24.79,24.79,0,0,1,2.22-3.88l.24.19A8.53,8.53,0,0,1,68,20.7a9.09,9.09,0,0,1,3-.87l.83-.09-.07-.83C71.74,18.41,71.67,17.91,71.57,17.4Z"/><path class="cls-2" d="M62.3,20.09l.6-.45c.29-.22.59-.43.87-.66,0,0,0-.1.07-.16a.47.47,0,0,0-.19-.63,3.64,3.64,0,0,1-.46-.42.16.16,0,0,0-.19,0l-.63.25a1,1,0,0,1-.69-.1,1.27,1.27,0,0,1-.32-.13.22.22,0,0,0-.3,0c-.18.17-.37.35-.56.5s-.06.24-.06.36c0,.33.27.43.47.59l1,.78.07.08-.31.06-.8.08c-.22,0-.45.07-.68.08a.83.83,0,0,1-.69-.48q-.18-.42-.39-.81a.81.81,0,0,1-.09-.53,10.74,10.74,0,0,1,.64-2.16,8,8,0,0,1,1-1.73l0,0c.21-.13.19-.3.12-.51s-.15-.58-.24-.87A1.46,1.46,0,0,0,60,12.5a3.83,3.83,0,0,0-1.24-.59,2.84,2.84,0,0,0-.71-.11.57.57,0,0,1-.55-.83,3.75,3.75,0,0,1,.82-1.21l.75-.7a3,3,0,0,0-.83.48,5.67,5.67,0,0,0-1.78,2.3,7.71,7.71,0,0,0-.57,1.74s-.07.08-.1.11l-.73.49.84.85c-.19.24-.38.46-.54.7a3.55,3.55,0,0,0-.53,1.34c-.06.31-.08.63-.12.95,0,.09,0,.12.11.15a9.09,9.09,0,0,1,1.91,1,10.71,10.71,0,0,1,1.66,1.49c.36.39.67.82,1,1.23,0,0,0,0,0,.05s-.15-.18-.23-.26a9.37,9.37,0,0,0-1.9-1.47,9.82,9.82,0,0,0-2-.92A8.46,8.46,0,0,0,53.6,19c-.24,0-.23,0-.2-.28a14,14,0,0,1,.75-3.19L54.3,15a.56.56,0,0,0,0-.1l-1.2,1,0,0c.1-.28.18-.58.3-.85.26-.61.52-1.23.82-1.82a6.1,6.1,0,0,1,1.18-1.67c.23-.22.48-.4.72-.6a.8.8,0,0,0,.13-.13l-1.52.46,0,0a7.78,7.78,0,0,1,4.75-3.12,3.21,3.21,0,0,0-.69-.05L58,8l.44-.27a7.46,7.46,0,0,1,1.94-.68,1.37,1.37,0,0,1,.89.14l.78.32c.14.06.25,0,.36-.07l1-.38a.66.66,0,0,1,.34,0,6.62,6.62,0,0,1,2.15.74,3.87,3.87,0,0,1,.34.21s0,0,0,.05l-1.39,0v.05a7.63,7.63,0,0,1,4.72,3.12l0,.05-1.5-.47v0l.73.61a3.33,3.33,0,0,1,.66.74,8.93,8.93,0,0,1,.88,1.53c.25.56.46,1.14.69,1.71a3.8,3.8,0,0,1,.15.51L70,15a15.56,15.56,0,0,1,1,4,10,10,0,0,0-3.32.95A9.77,9.77,0,0,0,64.81,22a1.45,1.45,0,0,1,.17-.26c.43-.49.84-1,1.3-1.45a8.47,8.47,0,0,1,2-1.51c.38-.2.79-.36,1.19-.54.07,0,.1-.06.09-.13a4.44,4.44,0,0,0-.84-2.61l-.33-.38.86-.84c-.25-.18-.46-.35-.69-.5a.28.28,0,0,1-.15-.2,8.55,8.55,0,0,0-.72-2.06,6.69,6.69,0,0,0-.86-1.26,4.79,4.79,0,0,0-1.45-1.12l-.11,0h0c.11.1.22.2.34.29a4.51,4.51,0,0,1,1.12,1.41.81.81,0,0,1,.12.66.58.58,0,0,1-.52.39,2.67,2.67,0,0,0-1.29.31c-.25.14-.51.27-.74.43a1.41,1.41,0,0,0-.59.89c-.07.29-.15.58-.22.87a.17.17,0,0,0,0,.14,4.8,4.8,0,0,1,.75,1.09,8.67,8.67,0,0,1,.88,2.35c.06.27.11.53.16.8a.42.42,0,0,1,0,.19c-.19.38-.37.77-.56,1.15a.34.34,0,0,1-.12.12,1.4,1.4,0,0,0-.17.09.87.87,0,0,1-.65.08c-.23,0-.46,0-.69-.07l-.76-.12Z"/><path class="cls-2" d="M68.6,14.26l-.91.89c.15.11.3.2.43.31a3,3,0,0,1,.86,1.6c0,.21.08.43.12.64s0,.18-.15.24c-.4.21-.81.42-1.19.67a13,13,0,0,0-1.1.86,9.47,9.47,0,0,0-.73.69,15.14,15.14,0,0,0-1.36,1.62,25.61,25.61,0,0,0-2.37,4.09.47.47,0,0,1-.05.1s0,0,0,0a.75.75,0,0,1-.07-.12c-.31-.62-.6-1.25-.93-1.87a15.66,15.66,0,0,0-1.33-2.12,15.62,15.62,0,0,0-1-1.3c-.42-.46-.87-.9-1.33-1.32a9.07,9.07,0,0,0-1-.77c-.4-.26-.83-.48-1.26-.73a3.2,3.2,0,0,1,1.41-2.64l-.9-.89a1.27,1.27,0,0,1,.64-.24,3,3,0,0,1,1.74.35,1.83,1.83,0,0,1,1,1.41,2.62,2.62,0,0,1-.18,1.35c-.15.41-.2.85-.35,1.26a1.24,1.24,0,0,0,.23,1.1,8.67,8.67,0,0,0,.43.79c.35.52.74,1,1.11,1.53.5.71,1,1.43,1.48,2.16.12.18.23.38.34.57.27-.42.53-.85.82-1.25.56-.81,1.14-1.6,1.72-2.39a6.87,6.87,0,0,0,.74-1.18c.11-.25.26-.48.38-.73a.41.41,0,0,0,0-.22c-.14-.57-.28-1.15-.45-1.72a2.89,2.89,0,0,1-.16-1,2.06,2.06,0,0,1,.52-1.24,2.41,2.41,0,0,1,1.45-.71,2.11,2.11,0,0,1,1.14.06C68.41,14.16,68.49,14.21,68.6,14.26Z"/><path class="cls-2" d="M68.8,6.76a2.09,2.09,0,0,1-1.62.87,2.2,2.2,0,0,1-1.29-.34c.53-.32,1.06-.61,1.56-1s1-.73,1.46-1.1a4.2,4.2,0,0,1,.4,1.11,4.71,4.71,0,0,1,.06,1.3A5.48,5.48,0,0,1,69.07,9a4,4,0,0,1-.2.42.67.67,0,0,1-.15.13c.08-.49.16-.95.2-1.41A4,4,0,0,0,68.8,6.76Z"/><path class="cls-2" d="M55.65,9.56a2.25,2.25,0,0,1-.17-.21,3.82,3.82,0,0,1-.39-1.24,8.93,8.93,0,0,1-.08-1,3.79,3.79,0,0,1,.31-1.49c0-.13.11-.26.18-.42a14.43,14.43,0,0,0,3,2.08,2.17,2.17,0,0,1-2.92-.52,4.14,4.14,0,0,0-.13,1.4C55.5,8.59,55.58,9.05,55.65,9.56Z"/><path class="cls-2" d="M63.83,21.09c0,.11,0,.18-.15.23l-1.43.59c-.16.07-.28,0-.4-.09l-1.23-.5a.24.24,0,0,1-.17-.24.26.26,0,0,1,.19-.3,3.35,3.35,0,0,1,.44-.07l.86-.05a6.81,6.81,0,0,1,1.35.09h.22A.32.32,0,0,1,63.83,21.09Z"/><path class="cls-2" d="M60.35,14.19a2.65,2.65,0,0,1-.38.05A3,3,0,0,1,58.59,14a2,2,0,0,1-1-1.05c0-.08-.05-.16-.08-.25s0,0,0-.06a1.08,1.08,0,0,1,.6.2,1.82,1.82,0,0,1,.34.34,1.24,1.24,0,0,0,.71.4,1.56,1.56,0,0,0,.43,0A.76.76,0,0,1,60.35,14.19Z"/><path class="cls-2" d="M66.85,12.69a1.73,1.73,0,0,1-.3.66,2.09,2.09,0,0,1-1.51.88,7.69,7.69,0,0,1-1,0c-.07,0-.08,0-.06-.1a.72.72,0,0,1,.64-.5,1.47,1.47,0,0,0,.78-.11,1.32,1.32,0,0,0,.45-.32,1.3,1.3,0,0,1,.9-.52Z"/><path class="cls-2" d="M60.79,18.91a1.07,1.07,0,0,1,0-.21c0-.1,0-.21.09-.28a.85.85,0,0,0,.26-.24c.1-.13.2-.12.34-.06a2.41,2.41,0,0,0,.68.2A1.81,1.81,0,0,0,63,18.1l.1-.05.42.39a.26.26,0,0,1,.08.25c0,.07,0,.14-.05.25l-.19-.31c-.27.09-.56.16-.83.26a.91.91,0,0,1-.67,0,8,8,0,0,0-.83-.26Z"/><path class="cls-2" d="M65.53,12.59a.53.53,0,0,1-.2.58.59.59,0,0,1-.69,0c-.12-.07-.15-.22,0-.27.29-.13.58-.24.87-.35Z"/><path class="cls-2" d="M58.83,12.54l.89.37c.13.06.12.22,0,.29a.61.61,0,0,1-.68,0A.53.53,0,0,1,58.83,12.54Z"/></g><path class="cls-4" d="M30,10.09l-2.22.17a1.35,1.35,0,0,0,0-.27V9.87c0-.13,0-.28,0-.43-.17-1.14-.32-2.18-.48-3.23A1.91,1.91,0,0,0,25.6,4.53h0l-.12,0a21.93,21.93,0,0,0-5.55-.75h-.13A18.88,18.88,0,0,0,17,4c-.81.12-1.6.3-2.37.47l-.52.12A1.86,1.86,0,0,0,12.65,6,28.7,28.7,0,0,0,12,10.31c0,.28,0,.56-.07.84,0,0,0,.12,0,.32l-2.08.16,0,3.71,2.41-.19c0,.2,0,.33,0,.36a2.71,2.71,0,0,1,0,.41,9.56,9.56,0,0,0,1.07,3.5,28.7,28.7,0,0,0,4,5.6,6.56,6.56,0,0,0,.95.83l.13.1a1.05,1.05,0,0,0,.62.2l1.51,0a1.21,1.21,0,0,0,.56-.15,2.64,2.64,0,0,0,.73-.55l.42-.49c.64-.74,1.31-1.51,1.93-2.31a18,18,0,0,0,2.47-4.09,9.54,9.54,0,0,0,.68-2.66l.05-.42s.05-.66.11-1.52l2.34-.18Z"/><path class="cls-1" d="M27,10.31l-1.28.1a3,3,0,0,0-3.2-.67,3,3,0,0,0-1.63,1l-2.1.16a3.25,3.25,0,0,0-5.1-.27,3.11,3.11,0,0,1,2.16-.41,4.91,4.91,0,0,1,1.88.76l-5.16.4A37.25,37.25,0,0,1,13.3,6.2a1.22,1.22,0,0,1,.95-1c.95-.21,1.89-.44,2.85-.58a18.5,18.5,0,0,1,2.78-.22,21.7,21.7,0,0,1,5.37.72,1.52,1.52,0,0,0,.2.06,1.26,1.26,0,0,1,1,1.13c.17,1.07.32,2.15.48,3.22,0,.23,0,.47.06.7A.2.2,0,0,1,27,10.31Z"/><path class="cls-1" d="M26,16.17a4.19,4.19,0,0,1-2.57.46l.61.17c.2,0,.42.06.62.09a.41.41,0,0,1,0,.07,4.5,4.5,0,0,1-1.78,1.71,1.4,1.4,0,0,1-1.84-.55.87.87,0,0,1,.72-.35c.37,0,.5-.19.47-.55-.28.38-.46.42-1,.23a.33.33,0,0,0-.4.1,1.19,1.19,0,0,1-1.89,0c-.12-.13-.21-.18-.37-.1a1.55,1.55,0,0,1-.23.06c-.43.1-.54.06-.82-.29,0,.35.11.52.46.56a.87.87,0,0,1,.73.34,1.39,1.39,0,0,1-1.61.63,2.91,2.91,0,0,1-1.25-.85c-.28-.29-.53-.62-.82-1l1.34-.28v-.07a4.4,4.4,0,0,1-2.07-.15,2.44,2.44,0,0,1-1.41-1.32L27.17,14A2.8,2.8,0,0,1,26,16.17Z"/><path class="cls-1" d="M13,15.85a1.78,1.78,0,0,1,.63,1,12.93,12.93,0,0,0,1.92,3.68,3,3,0,0,0,.35.36,12,12,0,0,1-1.67-4.07l.35.63c.18.3.37.6.56.9a2.86,2.86,0,0,0,2.23,1.43l.93.11a1.07,1.07,0,0,0,1-.39l.51-.61.61.68a.85.85,0,0,0,.81.32,16.58,16.58,0,0,0,2-.36,1.58,1.58,0,0,0,.79-.56c.47-.61.87-1.28,1.29-1.92a1.06,1.06,0,0,1,.16-.21,12.89,12.89,0,0,1-1.7,4.07L24,20.7l.15-.18a12.8,12.8,0,0,0,2-3.84,1.8,1.8,0,0,1,.59-.84,9,9,0,0,1-.63,2.48,17.79,17.79,0,0,1-2.39,3.94c-.74.95-1.54,1.85-2.33,2.76a1.65,1.65,0,0,1-.54.4c-.29.16-.47,0-.41-.28.08-.5.2-1,.31-1.47a1.47,1.47,0,0,0-.13-1.16.66.66,0,0,1,0-.75c0-.07.07-.15.12-.24H19a1.54,1.54,0,0,1,.15.32,1.14,1.14,0,0,1,0,.61,1.85,1.85,0,0,0-.12,1.4c.1.41.2.83.28,1.25a.42.42,0,0,1-.08.34.4.4,0,0,1-.35,0,7.16,7.16,0,0,1-1-.83A28.55,28.55,0,0,1,14,19.1,8.89,8.89,0,0,1,13,15.85Z"/><path class="cls-1" d="M25.42,10.44l-2.84.22A3.55,3.55,0,0,1,25.42,10.44Z"/><g id="red-2" data-name="red"><polygon class="cls-2" points="29.6 13.52 10.19 15 10.22 11.91 29.64 10.43 29.6 13.52"/></g><g id="wolford-2" data-name="wolford"><polygon class="cls-3" points="13.32 12.27 13.25 13.05 13.07 12.26 12.05 12.34 11.96 13.2 11.7 12.38 10.76 12.44 11.38 14.53 12.48 14.49 12.58 13.66 12.82 14.44 13.93 14.33 14.18 12.17 13.32 12.27"/><polygon class="cls-3" points="18.95 13.16 18.31 13.19 18.21 11.87 17.13 11.89 17.27 14.06 19 13.94 18.95 13.16"/><polygon class="cls-3" points="20.29 12.2 20.82 12.14 20.81 11.72 19.1 11.83 19.26 13.83 20.24 13.79 20.3 13.12 20.81 13.06 20.81 12.55 20.3 12.57 20.29 12.2"/><path class="cls-3" d="M22.32,11.49c-.66,0-1.16.23-1.17,1.14,0,.67.27,1,1.22,1.06.74,0,1.15-.24,1.16-1.12C23.54,11.91,23.32,11.51,22.32,11.49Zm.09,1.87c-.07,0-.16-.35-.19-.78s0-.79.09-.79.16.34.19.77S22.49,13.35,22.41,13.36Z"/><path class="cls-3" d="M25.9,12.44s.7-.83-.19-1.17c-1,0-1.77.05-1.77.05s-.14,0-.13.1a16.28,16.28,0,0,0,.2,2l1,0,.05-.53.52.61.8-.49Zm-1,0v-.79c.2,0,.26.06.28.43A.3.3,0,0,1,24.92,12.44Z"/><path class="cls-3" d="M28.9,12.09s.07-.81-.6-1l-.76,0-1,.08.17,2.08,1.08-.06S28.94,13.15,28.9,12.09Zm-1.14.67s-.16.28-.17-.47l0-.76s0-.21.15-.11A1.82,1.82,0,0,1,27.76,12.76Z"/></g><g id="wolf-2" data-name="wolf"><path class="cls-3" d="M17.3,13.28l.15.11L17.37,13a.56.56,0,0,0,0-.12l0-.06-.11-.22a1.07,1.07,0,0,0-.16-.25l0-.13,0-.06a.67.67,0,0,0-.14-.15h0a.25.25,0,0,0,0-.09,1.26,1.26,0,0,0,.05-.28,1.22,1.22,0,0,0,0-.26.67.67,0,0,0-.1-.23L16.76,11l-.13.11-.07.06-.16.14-.17.11-.08.06h0l-.25-.05h-.05l-.08,0-.09,0-.07,0h0l-.07,0a.27.27,0,0,0-.17,0h-.07a.84.84,0,0,0-.19.07l0,0a3,3,0,0,1-.5-.3l-.16-.13-.07.19v0a.14.14,0,0,1,0,.06.93.93,0,0,0,0,.31.64.64,0,0,0,0,.2.75.75,0,0,0,.09.25h0l-.12.17,0,.07.06.12a.91.91,0,0,0-.09.17c-.05.1-.08.2-.12.3v0l0,.11v.05l0,.1.1.06,0,0a1.55,1.55,0,0,0,0,.31h0a.14.14,0,0,0,0,.13.17.17,0,0,0,.13.06,1.38,1.38,0,0,1,.26,0,1.51,1.51,0,0,1,.33.13,1,1,0,0,1,.3.21l0,0h0l.14.14,0,0c0,.07.09.13.13.21l.12.2.06.1v0h0l.09.14.13-.11a.11.11,0,0,0,0,0v0h0a4.79,4.79,0,0,1,.34-.68l0,0a1.36,1.36,0,0,1,.41-.34,1.55,1.55,0,0,1,.51-.18l.15,0,0-.15A1.23,1.23,0,0,0,17.3,13.28Z"/><path class="cls-2" d="M15.75,13.83l.1-.08.14-.12a0,0,0,0,1,0,0s0-.08,0-.11l-.08-.06h0l-.1.05s-.08,0-.12,0l-.06,0s0,0-.05,0l-.09.09s0,.05,0,.07.05.07.08.09l.18.13h0l-.13,0-.12,0a.13.13,0,0,1-.12-.07c0-.05,0-.09-.07-.14a.1.1,0,0,1,0-.09,1.63,1.63,0,0,1,.08-.37,1.3,1.3,0,0,1,.16-.31h0s0-.05,0-.09a.88.88,0,0,1,0-.15.23.23,0,0,0-.11-.11.4.4,0,0,0-.21-.09h-.13a.1.1,0,0,1-.1-.14.57.57,0,0,1,.13-.21l.12-.13a.55.55,0,0,0-.14.09,1,1,0,0,0-.28.41c0,.1-.06.2-.08.3v0l-.12.09.15.14-.08.12a.53.53,0,0,0-.08.24.86.86,0,0,0,0,.16s0,0,0,0a1.4,1.4,0,0,1,.33.15,1.76,1.76,0,0,1,.3.24l.18.2s0,0,0,0l0,0a1.56,1.56,0,0,0-.34-.23,1.42,1.42,0,0,0-.36-.14l-.28,0s0,0,0,0a2.75,2.75,0,0,1,.1-.56.19.19,0,0,0,0-.07v0l-.19.18h0a.83.83,0,0,1,0-.15l.12-.32a1,1,0,0,1,.19-.3l.11-.11,0,0-.25.09h0a1.34,1.34,0,0,1,.78-.58H14.9a.18.18,0,0,0,.07-.05,1.2,1.2,0,0,1,.33-.13.2.2,0,0,1,.15,0l.14,0s0,0,.06,0l.17-.08h0a1.27,1.27,0,0,1,.38.11l.06,0h0l-.23,0h0a1.28,1.28,0,0,1,.83.49h0l-.26-.06h0l.13.1a.68.68,0,0,1,.12.12,1.32,1.32,0,0,1,.16.25c.05.09.09.19.14.29l0,.08L17,12.88a2.66,2.66,0,0,1,.2.68,1.62,1.62,0,0,0-.56.19,1.67,1.67,0,0,0-.46.38l0-.05a2.65,2.65,0,0,1,.21-.26,1.29,1.29,0,0,1,.33-.28l.19-.1,0,0A.77.77,0,0,0,16.8,13l-.06-.06.14-.16-.13-.07a.05.05,0,0,1,0,0,1.47,1.47,0,0,0-.15-.34,1,1,0,0,0-.16-.21.85.85,0,0,0-.25-.17h0l.06.05a.77.77,0,0,1,.21.23.11.11,0,0,1,0,.11.08.08,0,0,1-.08.07.44.44,0,0,0-.22.07l-.12.08a.24.24,0,0,0-.09.15l0,.15a0,0,0,0,0,0,0A.86.86,0,0,1,16,13a1.71,1.71,0,0,1,.17.39l0,.13s0,0,0,0a1.19,1.19,0,0,0-.08.2l0,0,0,0a.2.2,0,0,1-.11,0h-.25Z"/><path class="cls-2" d="M16.76,12.77l-.14.16.07.05a.48.48,0,0,1,.17.27.36.36,0,0,1,0,.1s0,0,0,.05l-.2.12-.17.16a.74.74,0,0,0-.12.13,3,3,0,0,0-.22.28,4.12,4.12,0,0,0-.36.73h0v0c-.06-.1-.11-.21-.18-.31a2.71,2.71,0,0,0-.24-.35L15.15,14a1.57,1.57,0,0,0-.24-.21.57.57,0,0,0-.18-.12l-.22-.12a.54.54,0,0,1,.22-.46l-.16-.14a.14.14,0,0,1,.1-.05.5.5,0,0,1,.3,0,.32.32,0,0,1,.18.23.36.36,0,0,1,0,.23c0,.08,0,.15,0,.22s0,.13.05.19l.08.13c.06.08.14.16.2.25l.28.35.06.1a1.59,1.59,0,0,1,.13-.22l.27-.43a1.39,1.39,0,0,0,.11-.21l.06-.13s0,0,0,0a2.46,2.46,0,0,0-.09-.29.53.53,0,0,1,0-.17.42.42,0,0,1,.08-.22.46.46,0,0,1,.44-.14Z"/><path class="cls-2" d="M16.73,11.49a.35.35,0,0,1-.27.16.37.37,0,0,1-.23,0l.26-.18.24-.2a1.08,1.08,0,0,1,.08.19.78.78,0,0,1,0,.22.67.67,0,0,1,0,.24.21.21,0,0,1,0,.07,0,0,0,0,1,0,0,1.94,1.94,0,0,0,0-.24A1,1,0,0,0,16.73,11.49Z"/><path class="cls-2" d="M14.51,12.1s0,0,0,0a.5.5,0,0,1-.08-.2l0-.18a1.17,1.17,0,0,1,0-.26l0-.07a2.2,2.2,0,0,0,.53.32.36.36,0,0,1-.5-.06.65.65,0,0,0,0,.24C14.47,11.93,14.49,12,14.51,12.1Z"/><path class="cls-2" d="M16,14a.05.05,0,0,1,0,0l-.23.11a.08.08,0,0,1-.07,0l-.22-.07s0,0,0,0a.06.06,0,0,1,0-.06h.08l.14,0H16A.06.06,0,0,1,16,14Z"/><path class="cls-2" d="M15.36,12.84h-.07a.49.49,0,0,1-.24,0,.37.37,0,0,1-.18-.17s0,0,0,0h0a.18.18,0,0,1,.1,0l.06.06a.31.31,0,0,0,.13.06h.07A.13.13,0,0,1,15.36,12.84Z"/><path class="cls-2" d="M16.45,12.52a.28.28,0,0,1,0,.12.38.38,0,0,1-.25.16H16s0,0,0,0a.15.15,0,0,1,.11-.09.3.3,0,0,0,.13,0l.07-.06a.22.22,0,0,1,.15-.1Z"/><path class="cls-2" d="M15.48,13.64a0,0,0,0,1,0,0s0,0,0,0,0,0,0,0,0,0,.06,0l.12,0a.39.39,0,0,0,.14,0h0l.07.07s0,0,0,0,0,0,0,0l0,0-.14,0a.17.17,0,0,1-.12,0l-.14,0Z"/><path class="cls-2" d="M16.22,12.52a.09.09,0,0,1-.14.11s0,0,0,0l.15-.07Z"/><path class="cls-2" d="M15.08,12.58l.16.05a0,0,0,0,1,0,0,.13.13,0,0,1-.12,0S15.08,12.62,15.08,12.58Z"/></g></svg>