<svg id="Layer_1" data-name="Layer 1" xmlns="http://www.w3.org/2000/svg" viewBox="0 0 150 30"><defs><style>.cls-1{fill:#1b0a2c;}.cls-2,.cls-3{fill:none;stroke-miterlimit:10;}.cls-2{stroke:#af7142;stroke-width:0.83px;}.cls-3{stroke:#e6ae63;stroke-width:0.78px;}.cls-4{fill:#e6ae63;}</style></defs><rect class="cls-1" width="150" height="30"/><rect class="cls-2" width="150" height="30"/><rect class="cls-3" x="1.72" y="1.6" width="146.55" height="26.81"/><path class="cls-4" d="M54,7.07h0a.27.27,0,0,0-.27.3A29.17,29.17,0,0,1,54,10.94c0,6.21-1.86,11.45-4.06,11.45s-4.06-5.24-4.06-11.45A29.17,29.17,0,0,1,46,7.37a.27.27,0,0,0-.28-.3h0a.27.27,0,0,0-.27.24,32.11,32.11,0,0,0-.21,3.63c0,6.73,2,12,4.61,12s4.6-5.26,4.6-12a29.93,29.93,0,0,0-.21-3.63A.26.26,0,0,0,54,7.07Z"/><path class="cls-4" d="M51.36,13.28a1.23,1.23,0,1,1-2.45,0c0-.68.55-4.17,1.22-4.17S51.36,12.6,51.36,13.28Z"/><path class="cls-4" d="M63,4.66a1.44,1.44,0,0,1-.77,0Z"/><path class="cls-4" d="M87.63,18a1.31,1.31,0,0,1,1.23,1.1.65.65,0,0,1-.1.36,1.58,1.58,0,0,1-.9.64,1.22,1.22,0,0,1-1.27-1,1.75,1.75,0,0,1,.09-.68.18.18,0,0,1,.09-.12A2.22,2.22,0,0,1,87.63,18Z"/><path class="cls-4" d="M101.77,8.81c-.12-.41-5.9.15-6-.3.09-.51-1.64-.61-1.56-.07,0,.23,0,.26-.27.23-.62-.2-1,.35-1.59.35-2-.06-4-.35-6-.44a15.41,15.41,0,0,0-3.11.09c-.55.09.17-.79-1.6-.53-.41,0-.08.66-.53.53a18.35,18.35,0,0,0-2.77-.12c-.56-.09-.23,1.13-.31,1.49s-.57.45-.82.69c-.68,1-4.82-1.19-2.74-.8,1.13.41,1.45-.48,1.08-1.41s-2-.68-2.54,0a.38.38,0,0,1-.51.13c-.29-.17-.34.16-.53.31a2.86,2.86,0,0,0-.57.68s0,.09-.1.08c-.78-1.88-3.48-.12-4.66.52-.24.16-.24.16-.46,0s-.75-.62-1.13-.91c-1-.8-2.44-.69-3.67-.61-.17,0-.27,0-.33-.19C59.85,5,65,6,66.83,6.47c2.89.84,5.33.66.79-.78a13.88,13.88,0,0,0-5.76-1c-1.6,0-3.63.75-2.76,2.73,0,.19.64,1.39.3,1.29-.7-.08-1.22-.21-1.17.69.08.28.08.58.46.52s1.08,0,1,.64c.11,2.84.19,5.69.19,8.53.08.67-.27,3.18.38,3.37,1-2.42.69-5.27.93-7.86.05-1.2.07-2.41.09-3.61,0-.46.15-1.14.74-1,1.26.12,2.78-.11,3.63,1.05.22.36-.28.74-.3,1.13C65,13.32,66.71,14,67.62,13.54c1.16-.61-1-2.22.21-2.68,3.27-.91,2,.71,2,2.91a22.19,22.19,0,0,0,.21,3.55c0,.26,0,.27-.2.18-2-.81-5.49,1.28-6.18-1.64a.45.45,0,0,0-.4-.38.45.45,0,0,0-.52.26c-.48,1.08.66,2,1.24,2.83,1,1.08,2.64.45,3.82.11.48-.16,2.15-.43,2.36.11.12.88.56,1,1.37.81.41-.08.21-.38.22-.67.57.31.39-.17.41-.55.06-.74-.48-.27-.61-.71a31.26,31.26,0,0,1-.24-6,1.68,1.68,0,0,1,1.26-1.72.32.32,0,0,0,.31-.14,4.33,4.33,0,0,0,2.37,2.45,18.3,18.3,0,0,0-2.34,2.4c-.47.58,0,1.28.36,1.77.93.74,2.24.93,3.29,1.51.62.33,1.44.64,1.68,1.34,0,.72,1.37.28,1.65-.09s.21-.32,0-.54c-.44-.4-.26-2.26-.38-2.94a38,38,0,0,1,.06-3.85c.16-.68-.28-2.4.92-1.94.31.25,1-.12,1.11.29.07,2.33,0,4.66,0,7,.15,2.1-.78,2.77,1.29,2.34.62-.09,0-1.59.14-2.09-.12-2.45-.16-4.89-.08-7.33,0-.09,0-.15.12-.14,2.26-.16,4.56-.68,6.79.07a17.88,17.88,0,0,0-4.27,3.73c-.4.68-1.6,1.57-.93,2.38,1.22,1.4,1.49.57,3.11.74,2.89,0,2.72,2.46,4.35,2.33a.81.81,0,0,0,.78-.64c.07-.43-.36-.65-.43-1-.13-2.28-.7-5.07.33-7.18.25-.26.51-.51.93-.37.21.07.49-.11.63.1.2,2.06,0,4.24,0,6.33,0,1,0,1.94-.07,2.91,0,.6.92.19,1.3.2s.39-.16.34-.5c-.18-1.17-.13-2.37-.22-3.55a50,50,0,0,1,0-5.48c.54-.09,4.42-.45,4.6-.53S101.77,9.56,101.77,8.81ZM77.34,17.1a16.41,16.41,0,0,0-2.49-1.63c-.13-.08-.16-.13-.07-.26a8.32,8.32,0,0,1,3.42-3.53c-.18,2.06,0,4.08,0,6.15Zm13.63,0a7.52,7.52,0,0,0-4.07-1.87c-.13,0-.14-.06-.09-.17a8.6,8.6,0,0,1,4.38-4.31A17,17,0,0,0,91,17.13Z"/><path class="cls-4" d="M63,23.16V25.1a.21.21,0,0,0,.21.21h0v0h-1v0h0a.18.18,0,0,0,.14-.06.21.21,0,0,0,.07-.14V23.16h-.44a.34.34,0,0,0-.25.1.32.32,0,0,0-.09.24v0h0V23a1,1,0,0,0,.39.06h1.33a.93.93,0,0,0,.23,0,.4.4,0,0,0,.16,0v.58h0v0a.31.31,0,0,0-.15-.29.35.35,0,0,0-.18-.05Z"/><path class="cls-4" d="M67.44,23.17h-.15V25.1a.2.2,0,0,0,.06.15.22.22,0,0,0,.15.06h0v0h-1v0h0a.2.2,0,0,0,.18-.11.17.17,0,0,0,0-.1V23.27a.21.21,0,0,0-.21-.21h0v0h1.13a1,1,0,0,1,.55.13.55.55,0,0,1,.17.2.61.61,0,0,1,.07.32.67.67,0,0,1-.14.39.56.56,0,0,1-.4.21.66.66,0,0,1,.34.29,2.44,2.44,0,0,0,.52.68.38.38,0,0,0,.22.06v0h-.32a1.09,1.09,0,0,1-.48-.08.59.59,0,0,1-.3-.26c0-.08-.14-.26-.28-.57-.06-.13-.13-.21-.22-.22v0h.1a.39.39,0,0,0,.26-.09.48.48,0,0,0,.16-.29.71.71,0,0,0-.1-.5.33.33,0,0,0-.28-.13Z"/><path class="cls-4" d="M71.52,25.31a.2.2,0,0,0,.14-.06.21.21,0,0,0,.07-.15V23.26a.21.21,0,0,0-.07-.14.2.2,0,0,0-.14-.06h0v0h1v0h0a.2.2,0,0,0-.14.06.17.17,0,0,0-.07.14V25.1a.18.18,0,0,0,.07.15.2.2,0,0,0,.14.06h0v0h-1v0Z"/><path class="cls-4" d="M77.39,23.34a1.1,1.1,0,0,1,.34.84,1.12,1.12,0,0,1-.34.85,1.32,1.32,0,0,1-.93.31h-1.2v0h0a.2.2,0,0,0,.15-.06.26.26,0,0,0,.07-.15V23.25a.19.19,0,0,0-.07-.14.25.25,0,0,0-.15-.05h0v0h1.2A1.32,1.32,0,0,1,77.39,23.34Zm-1,1.86a.69.69,0,0,0,.41-.12.77.77,0,0,0,.27-.36,1.35,1.35,0,0,0,.09-.5,1.56,1.56,0,0,0-.06-.46.79.79,0,0,0-.15-.32.67.67,0,0,0-.56-.28H76v2Z"/><path class="cls-4" d="M82.06,25.31a.19.19,0,0,0,.13,0,.23.23,0,0,0,.08-.16v-.84H81.2v.84a.21.21,0,0,0,.21.21h0v0h-1v0h0a.21.21,0,0,0,.21-.21V23.27a.21.21,0,0,0-.21-.21h0v0h1v0h0a.21.21,0,0,0-.21.21v.85h1.07v-.85a.21.21,0,0,0-.07-.15.2.2,0,0,0-.14-.06h0v0h1v0h0a.2.2,0,0,0-.15.06.21.21,0,0,0-.07.15V25.1a.21.21,0,0,0,.07.15.2.2,0,0,0,.15.06h0v0H82v0Z"/><path class="cls-4" d="M88.09,25.31h0v0H87.06v0h0a.13.13,0,0,0,.11,0,.16.16,0,0,0,0-.08.22.22,0,0,0,0-.08l-.16-.41h-.78l-.17.41a.24.24,0,0,0,0,.08s0,.05,0,.08a.13.13,0,0,0,.11,0h0v0h-.71v0h0a.3.3,0,0,0,.15,0,.44.44,0,0,0,.13-.14l.76-1.73a1.56,1.56,0,0,0,.16-.43h0l1,2.16a.33.33,0,0,0,.12.14A.3.3,0,0,0,88.09,25.31Zm-1.75-.76H87l-.32-.81Z"/><path class="cls-4" d="M91.58,23.17h-.15V25.1a.21.21,0,0,0,.21.21h0v0h-1v0h0a.2.2,0,0,0,.18-.11.17.17,0,0,0,0-.1V23.27a.21.21,0,0,0-.21-.21h0v0h1.13a1,1,0,0,1,.54.13.49.49,0,0,1,.18.2.61.61,0,0,1,.07.32.67.67,0,0,1-.14.39.56.56,0,0,1-.4.21.64.64,0,0,1,.33.29,2.61,2.61,0,0,0,.53.68.38.38,0,0,0,.22.06v0h-.33a1.15,1.15,0,0,1-.48-.08A.61.61,0,0,1,92,25a6,6,0,0,1-.28-.57c-.06-.13-.14-.21-.22-.22v0h.1a.39.39,0,0,0,.26-.09.48.48,0,0,0,.16-.29c0-.05,0-.09,0-.11A.59.59,0,0,0,92,23.3a.34.34,0,0,0-.28-.13Z"/><path class="cls-4" d="M97.91,25.31h0v0h-1v0h0a.12.12,0,0,0,.1,0,.12.12,0,0,0,0-.08.24.24,0,0,0,0-.08l-.16-.41h-.77l-.18.41a.22.22,0,0,0,0,.08.13.13,0,0,0,0,.08.14.14,0,0,0,.11,0h0v0h-.71v0h0a.3.3,0,0,0,.15,0,.35.35,0,0,0,.13-.14l.76-1.73a1.74,1.74,0,0,0,.17-.43h0l1,2.16a.35.35,0,0,0,.13.14A.3.3,0,0,0,97.91,25.31Zm-1.75-.76h.66l-.32-.81Z"/></svg>